# xmcd
#
# Track frame offsets:
#	150
#	4729
#	22115
#	36484
#	54678
#	72872
#	90993
#	92422
#	106352
#	125748
#	143757
#
# Disc length: 2077 seconds
#
# Revision: 0
# Processed by: cddbd v1.5.1PL0 Copyright (c) Steve Scherf et al.
# Submitted via: dBpowerAMP V4.0
#
DISCID=91081b0b
DTITLE=Big Cynthia - Doing It Big
DYEAR=2005
DGENRE=Blues
TTITLE0=Intro feat. Tony Mercedes
TTITLE1=Can't Miss What You cant Measure
TTITLE2=Eating Ain't Cheatin'
TTITLE3=Dont Rock The Boat
TTITLE4=I'm Sorry
TTITLE5=Down At The Juke Joint
TTITLE6=Shoe Size Skit
TTITLE7=If You Want To Get It
TTITLE8=Sho U Right
TTITLE9=Juke Joint Jumping
TTITLE10=Just Wanna Thank You
EXTD=
EXTT0=
EXTT1=
EXTT2=
EXTT3=
EXTT4=
EXTT5=
EXTT6=
EXTT7=
EXTT8=
EXTT9=
EXTT10=
PLAYORDER=
